HIERARCHY
ROOT Hips
{
	OFFSET -14.64140 90.27770 -84.91600
	CHANNELS 6 Xposition Yposition Zposition Zrotation Xrotation Yrotation
	JOINT Spine
	{
		OFFSET 0.00000 13.20850 -1.60436
		CHANNELS 3 Zrotation Xrotation Yrotation
		JOINT Spine1
		{
			OFFSET 0.00000 8.61716 0.00000
			CHANNELS 3 Zrotation Xrotation Yrotation
			JOINT Spine2
			{
				OFFSET 0.00000 8.61717 0.00000
				CHANNELS 3 Zrotation Xrotation Yrotation
				JOINT Spine3
				{
					OFFSET 0.00000 8.61717 0.00000
					CHANNELS 3 Zrotation Xrotation Yrotation
					JOINT Neck
					{
						OFFSET 0.00000 11.07920 1.10792
						CHANNELS 3 Zrotation Xrotation Yrotation
						JOINT Neck1
						{
							OFFSET 0.00000 7.08032 0.00000
							CHANNELS 3 Zrotation Xrotation Yrotation
							JOINT Head
							{
								OFFSET 0.00000 7.08031 0.00000
								CHANNELS 3 Zrotation Xrotation Yrotation
								End site
								{
									OFFSET 0.00000 0.00000 0.00000
								}
							}
						}
					}
					JOINT RightShoulder
					{
						OFFSET -0.01000 7.91373 5.19711
						CHANNELS 3 Zrotation Xrotation Yrotation
						JOINT RightArm
						{
							OFFSET -18.41580 0.00000 0.00000
							CHANNELS 3 Zrotation Xrotation Yrotation
							JOINT RightForeArm
							{
								OFFSET -29.11090 0.00000 0.00000
								CHANNELS 3 Zrotation Xrotation Yrotation
								JOINT RightHand
								{
									OFFSET -24.65040 0.00000 0.00000
									CHANNELS 3 Zrotation Xrotation Yrotation
									JOINT RightHandThumb1
									{
										OFFSET -5.35114 -0.85590 3.97906
										CHANNELS 3 Zrotation Xrotation Yrotation
										JOINT RightHandThumb2
										{
											OFFSET -4.52789 0.00000 0.00000
											CHANNELS 3 Zrotation Xrotation Yrotation
											JOINT RightHandThumb3
											{
												OFFSET -2.46976 0.00000 0.00000
												CHANNELS 3 Zrotation Xrotation Yrotation
												End site
												{
													OFFSET 0.00000 0.00000 0.00000
												}
											}
										}
									}
									JOINT RightHandIndex1
									{
										OFFSET -14.26970 0.00000 2.88139
										CHANNELS 3 Zrotation Xrotation Yrotation
										JOINT RightHandIndex2
										{
											OFFSET -5.48836 0.00000 0.00000
											CHANNELS 3 Zrotation Xrotation Yrotation
											JOINT RightHandIndex3
											{
												OFFSET -3.01859 0.00000 0.00000
												CHANNELS 3 Zrotation Xrotation Yrotation
												End site
												{
													OFFSET 0.00000 0.00000 0.00000
												}
											}
										}
									}
									JOINT RightHandMiddle1
									{
										OFFSET -14.26970 0.00000 -0.09147
										CHANNELS 3 Zrotation Xrotation Yrotation
										JOINT RightHandMiddle2
										{
											OFFSET -6.17441 0.00000 0.00000
											CHANNELS 3 Zrotation Xrotation Yrotation
											JOINT RightHandMiddle3
											{
												OFFSET -3.56743 0.00000 0.00000
												CHANNELS 3 Zrotation Xrotation Yrotation
												End site
												{
													OFFSET 0.00000 0.00000 0.00000
												}
											}
										}
									}
									JOINT RightHandRing1
									{
										OFFSET -12.69180 0.00000 -3.06433
										CHANNELS 3 Zrotation Xrotation Yrotation
										JOINT RightHandRing2
										{
											OFFSET -5.62556 0.00000 0.00000
											CHANNELS 3 Zrotation Xrotation Yrotation
											JOINT RightHandRing3
											{
												OFFSET -3.56744 0.00000 0.00000
												CHANNELS 3 Zrotation Xrotation Yrotation
												End site
												{
													OFFSET 0.00000 0.00000 0.00000
												}
											}
										}
									}
									JOINT RightHandPinky1
									{
										OFFSET -11.11390 0.00000 -6.03719
										CHANNELS 3 Zrotation Xrotation Yrotation
										JOINT RightHandPinky2
										{
											OFFSET -4.52789 0.00000 0.00000
											CHANNELS 3 Zrotation Xrotation Yrotation
											JOINT RightHandPinky3
											{
												OFFSET -2.46976 0.00000 0.00000
												CHANNELS 3 Zrotation Xrotation Yrotation
												End site
												{
													OFFSET 0.00000 0.00000 0.00000
												}
											}
										}
									}
								}
							}
						}
					}
					JOINT LeftShoulder
					{
						OFFSET 0.01000 7.91373 5.19711
						CHANNELS 3 Zrotation Xrotation Yrotation
						JOINT LeftArm
						{
							OFFSET 18.41580 0.00000 0.00000
							CHANNELS 3 Zrotation Xrotation Yrotation
							JOINT LeftForeArm
							{
								OFFSET 29.11090 0.00000 0.00000
								CHANNELS 3 Zrotation Xrotation Yrotation
								JOINT LeftHand
								{
									OFFSET 24.65040 0.00000 0.00000
									CHANNELS 3 Zrotation Xrotation Yrotation
									JOINT LeftHandThumb1
									{
										OFFSET 5.35114 -0.85590 3.97906
										CHANNELS 3 Zrotation Xrotation Yrotation
										JOINT LeftHandThumb2
										{
											OFFSET 4.52789 0.00000 0.00000
											CHANNELS 3 Zrotation Xrotation Yrotation
											JOINT LeftHandThumb3
											{
												OFFSET 2.46977 0.00000 0.00000
												CHANNELS 3 Zrotation Xrotation Yrotation
												End site
												{
													OFFSET 0.00000 0.00000 0.00000
												}
											}
										}
									}
									JOINT LeftHandIndex1
									{
										OFFSET 14.26970 0.00000 2.88139
										CHANNELS 3 Zrotation Xrotation Yrotation
										JOINT LeftHandIndex2
										{
											OFFSET 5.48836 0.00000 0.00000
											CHANNELS 3 Zrotation Xrotation Yrotation
											JOINT LeftHandIndex3
											{
												OFFSET 3.01859 0.00000 0.00000
												CHANNELS 3 Zrotation Xrotation Yrotation
												End site
												{
													OFFSET 0.00000 0.00000 0.00000
												}
											}
										}
									}
									JOINT LeftHandMiddle1
									{
										OFFSET 14.26970 0.00000 -0.09147
										CHANNELS 3 Zrotation Xrotation Yrotation
										JOINT LeftHandMiddle2
										{
											OFFSET 6.17440 0.00000 0.00000
											CHANNELS 3 Zrotation Xrotation Yrotation
											JOINT LeftHandMiddle3
											{
												OFFSET 3.56744 0.00000 0.00000
												CHANNELS 3 Zrotation Xrotation Yrotation
												End site
												{
													OFFSET 0.00000 0.00000 0.00000
												}
											}
										}
									}
									JOINT LeftHandRing1
									{
										OFFSET 12.69180 0.00000 -3.06433
										CHANNELS 3 Zrotation Xrotation Yrotation
										JOINT LeftHandRing2
										{
											OFFSET 5.62556 0.00000 0.00000
											CHANNELS 3 Zrotation Xrotation Yrotation
											JOINT LeftHandRing3
											{
												OFFSET 3.56744 0.00000 0.00000
												CHANNELS 3 Zrotation Xrotation Yrotation
												End site
												{
													OFFSET 0.00000 0.00000 0.00000
												}
											}
										}
									}
									JOINT LeftHandPinky1
									{
										OFFSET 11.11390 0.00000 -6.03719
										CHANNELS 3 Zrotation Xrotation Yrotation
										JOINT LeftHandPinky2
										{
											OFFSET 4.52789 0.00000 0.00000
											CHANNELS 3 Zrotation Xrotation Yrotation
											JOINT LeftHandPinky3
											{
												OFFSET 2.46976 0.00000 0.00000
												CHANNELS 3 Zrotation Xrotation Yrotation
												End site
												{
													OFFSET 0.00000 0.00000 0.00000
												}
											}
										}
									}
								}
							}
						}
					}
					JOINT pCube4
					{
						OFFSET 0.00000 10.91090 1.10792
						CHANNELS 3 Zrotation Xrotation Yrotation
						End site
						{
							OFFSET 0.00000 0.00000 0.00000
						}
					}
				}
			}
		}
	}
	JOINT RightUpLeg
	{
		OFFSET -9.98441 0.00000 0.00000
		CHANNELS 3 Zrotation Xrotation Yrotation
		JOINT RightLeg
		{
			OFFSET 0.00000 -42.11790 0.00000
			CHANNELS 3 Zrotation Xrotation Yrotation
			JOINT RightFoot
			{
				OFFSET 0.00000 -45.00020 -0.00001
				CHANNELS 3 Zrotation Xrotation Yrotation
				JOINT RightForeFoot
				{
					OFFSET 0.00000 -3.74820 0.00000
					CHANNELS 3 Zrotation Xrotation Yrotation
					JOINT RightToeBase
					{
						OFFSET 0.00000 0.06325 14.43120
						CHANNELS 3 Zrotation Xrotation Yrotation
						End site
						{
							OFFSET 0.00000 0.00000 0.00000
						}
					}
				}
			}
		}
	}
	JOINT LeftUpLeg
	{
		OFFSET 9.98441 0.00000 0.00000
		CHANNELS 3 Zrotation Xrotation Yrotation
		JOINT LeftLeg
		{
			OFFSET 0.00000 -42.11800 0.00000
			CHANNELS 3 Zrotation Xrotation Yrotation
			JOINT LeftFoot
			{
				OFFSET 0.00000 -45.00070 0.00000
				CHANNELS 3 Zrotation Xrotation Yrotation
				JOINT LeftForeFoot
				{
					OFFSET 0.00000 -3.74824 0.00000
					CHANNELS 3 Zrotation Xrotation Yrotation
					JOINT LeftToeBase
					{
						OFFSET 0.00000 0.06325 14.43110
						CHANNELS 3 Zrotation Xrotation Yrotation
						End site
						{
							OFFSET 0.00000 0.00000 0.00000
						}
					}
				}
			}
		}
	}
}
MOTION
Frames: 4
Frame Time: 0.050000
-0.021601197260608777 -0.03644466859856282 0.04021339951397762 0.006497253693518718 0.012946901276004081 -0.03616947124385495 -2.189580223666655 3.889837920842738 -1.010071907390282 -0.8902494730556911 3.789802330573231 0.36215755443743497 -0.9443061102464372 -0.3901052124398359 -1.0492331541582205 0.6647851274890584 0.4242879349843249 -0.8158845889156044 -0.19606172140328407 11.038997644901759 -0.9813370181567587 -0.04753119519380097 -0.9770008283228542 -3.5733192115692596 0.3554397607132684 -15.819857561597535 -0.313883923956332 0.2802080837064328 0.5442287719546975 -14.953070570382165 66.12693950184145 1.2262620551836012 9.014572170019923 30.739767500239385 -1.9117945621150836 93.75174760551441 13.617613597197598 -0.31823199709946887 -4.414853174375303 4.504363471611193 -0.1468198062697123 -1.5814491053263646 0.01954496122774541 -0.04090076900540789 -56.23716326653002 0.016561038700697358 -0.02683006078590035 -56.25935482407511 -38.79273016277719 -0.017019646517046044 -0.048004640092077146 0.04338727663652579 -0.005451949152108492 -0.040223423778721276 0.04132360648329928 0.00486844068790055 -0.02591393590411258 -36.73186528323311 -0.003111235496584208 -0.003107598603561854 0.046455331876955906 -0.04670091451991386 -0.023768753319528806 0.017039202238276225 0.04400714125195775 0.030528117218896627 -19.735234408584343 0.008954290798307575 0.02261658755992651 -0.024358151747131764 -0.025906229827556866 -0.011642487559866509 0.045001354014457914 0.022650306066340182 -0.04447816119601011 24.065069627891916 -0.008215970126143996 0.014269672397707022 28.8932539544582 0.01586833585647228 0.044035222511462344 28.84405174835905 0.010054525222979172 0.03298366847664937 1.1028936521847492 0.670375792139681 12.747554512688637 -61.756421635914336 26.78136928781207 -17.141081446609036 -6.320312150187533 6.855581181307907 -75.96704640083952 -13.163483777128521 3.777972882894425 -1.8113501378252876 -0.4602705619911468 0.07075721556407535 -8.093975969663234 -0.014398773721297614 -0.010484721084102576 44.59976156393996 0.02412783023539407 0.030485896932813828 44.55843111271324 12.423501272824774 0.016016043567837954 0.0410460402436235 -0.029903269399034253 0.048675321882697124 -0.006782229921320741 -0.011402778358494106 0.045553661424371956 -0.0062603770392417 11.152322857343655 0.0062844285859061455 0.014731100527360154 0.04361971559781635 0.030174260165091348 -0.01119916509673008 -0.009042419593365427 0.025075317594041097 -0.042534088557956554 4.789312096232069 -0.04434201084533595 0.022971829686191967 -0.03811920112788183 0.04731424039705376 0.015614930653322354 -0.02481940723041663 0.02961841116776364 -0.033190885192557334 -5.622461278252072 -0.02663447805665444 0.0030660094545240553 -6.7456183247913915 -0.007184648073727891 -0.002279484911474264 -6.733382501375205 -0.01834973937923879 -0.011724292534309786 -0.046065327447477544 -0.034577852489253574 0.011524555543782277 8.057404156484914 3.5002792079666256 -19.240425887414506 0.02711148590101866 10.401112638206106 -0.032131376530288275 -5.615237878507941 -15.653639298314014 3.170417396525184 0.01205283053545498 0.0005187538893536937 -0.01740756587523332 0.02794226028344725 4.726158974826747 0.00048580650512635543 12.503509254687438 -8.286735095176713 6.907898976561023 0.015072528504096983 46.40525801628778 -0.010350219893017302 -4.303053079366801 -14.776975800795375 -3.8185224053480877 -0.016071989631429258 0.017461018444653774 0.0023045005271678056 0.019801851150286397 -10.725150420144825 0.0014446151641614407 
0.026980939275888006 -0.03659619311709677 -0.0016952160619253807 -0.036026537935763096 0.026859583676459287 0.019872566056699764 -2.1131406865414037 3.9837086976633893 -0.978833819708716 -0.9282946338642102 3.835821678172359 0.3940662784861043 -0.9374491721431744 -0.3338017437336628 -0.9089674746091794 0.549592041334475 0.38256985504271784 -0.8487468342343018 -0.31116546284726204 11.071850391972166 -0.8720922257403751 -0.038094510315349925 -0.9411550607507563 -3.3972130143815975 0.31429122932143677 -15.818330743875562 -0.27987291050421415 0.4910466915370341 0.4639430559696569 -14.60096904338685 65.47461628824585 3.4144195159010833 10.813070185473077 31.114926419606007 -2.377263078988358 92.94249483565636 15.088495089578625 -0.30081598807595883 -4.995452025007643 4.528617998032503 -0.12997361760908643 -1.608550087141879 -0.0304737339975965 -0.01940198537431477 -56.2578461752264 -0.03392287740921691 -0.019599274246338623 -56.222021933763365 -38.75613416980267 -0.04536684234260789 0.03665419611618892 0.03567893637101799 0.006718395316190401 0.04037320255724763 0.02688094028679449 0.021155812437630424 0.03857597374907293 -36.64796117186458 -0.019853587457889645 -0.04080364925740741 0.0025730489682249153 -0.006640894049701408 0.039326830653888326 -0.027805575854823704 -0.026482183515781826 0.00041077046321719987 -19.737105272403536 -0.0465798954276668 -0.01086016877439272 -0.02282444316251488 -0.024111273162306067 0.017421826617709628 0.015679046260948723 0.03285467921412299 0.018746383691438974 24.04911909443146 0.037847387097393256 0.04210439507525246 28.89445607424204 -0.028778260412126146 -0.01370777174886891 28.826557387506337 -0.005664286345705423 -0.02848553811019079 1.2841012678084442 0.7461961960799566 12.680271389707253 -60.613732532380475 26.804261219294037 -19.464486422360284 -4.5414355953620795 5.188344213111985 -77.19278187448656 -13.73724776152836 4.28710248436705 -2.3217201275913246 -0.4972002996024958 0.11636683057690747 -8.111545341762522 -0.04481898465884713 0.011539245921065392 44.54887606728502 -0.004856844032884776 0.04879024680709801 44.580443422585724 12.429464533563332 -0.028682931361377 -0.011580872164569407 -0.015220750010987643 0.041753992901335114 -0.02191289156677273 -0.026598531891194255 -0.016248222631459877 -0.02619308322415028 11.12992622929368 -0.004343204944364953 0.003575571838441103 0.012520847826670784 0.01146311717526059 -0.0005174660401623518 -0.016771520598995004 -0.023129133438076755 0.02014385465587379 4.74961566079195 -0.0021750744562582134 0.012995660628435737 -0.0023278258439667814 -0.018123971993818534 0.031320389881643124 0.03091157064941938 0.0445289082915763 -0.03057788665789769 -5.619275086846582 -0.01575639805558705 0.022263305931224626 -6.7627668128043466 -0.04049879456274949 0.006630761574359919 -6.741328417343385 -0.016632118801644245 -0.007068099701659612 0.0038816360852096856 -0.023035701081130847 -0.016191205058391705 8.058669919136515 3.4598301092485553 -19.21652978206352 -0.012106574808118453 10.42084477649108 0.01535653847770213 -5.591618648700171 -15.622875989781567 3.1929482281287767 -0.03332479970589916 -0.04340822824115898 0.035827226130368976 0.018145608952132995 4.7435962398417635 -0.0037497413238226094 12.447527106146124 -8.246243506819885 6.900199915574148 0.008969928474529768 46.35471979965395 -0.04657064834118045 -4.282612849692191 -14.767644818138837 -3.8543233700574473 -0.005604748125203265 0.04272643797891089 0.012525961794331896 0.04200774348323351 -10.76885858078106 -0.03489500062037307 
-0.03030385941915926 0.03802989937795975 0.018433661086074356 0.028769431919027075 0.03029622842844551 -0.028344846747109916 -2.193177431699491 4.106035655537369 -0.9747712555191858 -0.8668925711920432 3.859731370101317 0.4074501512394983 -0.9370556844803487 -0.3678373429989122 -0.9988654694121998 0.5904306915546834 0.40225023076762456 -0.822377064519879 -0.3380499093063282 11.056874612216678 -0.8391268533789227 -0.031690654963654356 -0.9721892071227067 -3.337967150142494 0.273137451262935 -15.85191713996906 -0.2854073059048613 0.8107169960836633 0.38742507654164277 -14.294696292549299 64.83153278288404 4.64629319586935 12.031673925431583 31.87949628415218 -2.376232676771429 92.55232631122286 16.079306434884497 -0.2762615329837793 -5.550692524996787 4.533245430429925 -0.1456934807520101 -1.5885347657699598 -0.03823317098395411 -0.020062433182264132 -56.265389143259746 -0.0482624648856039 0.00850084871627698 -56.23904392999784 -38.772030092077614 -0.04588175091421605 0.031439609540532105 -0.02778898557814059 -0.018614430767545074 -0.02573863668243028 -0.007750145356446656 0.04742278479466559 0.017054455155745104 -36.71064120846496 -0.0470439907369378 -0.025611887940921434 0.035744723078624016 -0.03879688966144005 -0.04631369877196773 0.015428609399383042 0.020496922467526033 -0.021415125956721674 -19.783508146250362 -0.00783956476979463 0.020708415315316548 -0.022569255348953307 0.0024659002418204834 0.036860167534129275 0.03447103443070773 -0.02086217463124162 0.029367220327002876 24.054462133040214 -0.0339074673130789 -0.01993771355438727 28.88744572529001 0.017021397468742577 0.020969373404915496 28.86057477441953 0.00045977951062950906 0.019055273605400637 1.2543879474770394 0.711489444126577 12.560089263752536 -59.51469064896238 27.176584887134705 -21.261974789090257 -2.5887134916417236 3.886987454544415 -78.16086075625836 -13.95548365477976 4.67164543255943 -2.75334001797348 -0.5229583838964056 0.0763857095439031 -8.147821550453868 0.041951825151048415 0.031735999165577365 44.557336529918516 0.006821461050589732 -0.031692366936868666 44.53353384682977 12.463126726244939 0.045766082289507515 0.02455402623853671 0.023464658088538717 0.04217786153821157 0.0032236442843058574 0.045154202959209765 0.010687122324802883 0.03884784632355181 11.083889616259444 0.017254205648664377 0.03857689007557141 0.0011999531125235282 0.016245963896843244 0.004503571895660429 0.03441933959423729 0.010707074534271397 -0.021273632284205608 4.729943040039335 -0.009037850319995955 -0.030945099960536723 0.028736500678297104 -0.02015088876135078 -0.00183894853155828 -0.04760138947119097 -0.03326180954016068 -0.015729948968922658 -5.615370899369916 0.012734151834313248 0.04003597874503545 -6.734556930457733 -0.014050551986303885 0.024896920665471597 -6.740272613830519 0.017296585309562896 -0.03529063219746865 0.039424337373518144 -0.008955470634428487 -0.04010682220476272 8.04037233542668 3.5281451849475993 -19.268890139458247 0.004850369316949178 10.410479188525334 0.044591913242088284 -5.585823618094217 -15.685837913760748 3.1669921652466844 -0.021018444940541014 -0.03984358998880786 -0.004832089431304678 -0.03691933898023472 4.682266216302658 -0.03250485740222628 12.50531188834345 -8.27659207938998 6.9204894711954275 0.006016427029013504 46.42088266486413 -0.0202764684874497 -4.324754069581614 -14.75004736827151 -3.840310826733691 -0.007235846554000434 0.010993814934402515 0.015141132959531258 0.021218585947701873 -10.74587955113002 -0.014181091400408383 
-0.03029186413765894 -0.01742188650081137 -0.033078987164393066 -0.03952998797497675 0.02196813400949398 -0.02889191436790403 -2.2207212203388225 4.250527830089635 -0.9418591449713222 -0.8692931009404994 3.8109810056114815 0.3753289779302381 -0.8865114408286623 -0.3078430173705794 -1.0409067371962684 0.6433462217743401 0.43530460690946116 -0.8811252139746397 -0.35107487880579585 10.997086014471211 -0.8078742387251221 -0.1288959406434838 -1.0032789889615392 -3.365413691226854 0.26326479023191246 -15.818917993787037 -0.24061346183334553 1.0708641727206643 0.3332592682091893 -14.22137757222579 64.0559575868337 4.960275257171604 12.863783376106898 32.802546090346226 -1.9527471022452527 92.48837378097167 16.637618971046237 -0.3005703983715425 -6.089192799394785 4.484432597475222 -0.16055504923179342 -1.618165449163921 0.024178355514263068 0.028467630151889273 -56.248368715236325 -0.0003662034817647075 0.045898255727918086 -56.192404911165575 -38.76018629489703 -0.02927556388138158 0.033672246374061465 0.014018076374860923 -0.016772421457259712 0.0214187281949055 0.039016504161153584 0.012559833884662747 0.030210543697624853 -36.70155216107711 0.029565726578331016 -0.003987488736489232 0.04623538963112009 -0.02201428436615642 -0.0075834412750117935 -0.03154422064423223 -6.883821036767855e-05 -0.030972095094589022 -19.805141613054193 0.039299247491880004 -0.004706585163036484 -0.014697830765762357 0.0014134798124515824 0.012472980231036756 -0.019416832905055935 0.0440625066369256 0.010613628568243903 24.041725624092056 -0.03925686860277136 0.016552881709592765 28.881311797059986 -0.028994754681551955 -0.006227648385342384 28.88968191552856 0.010865777480078408 0.04623591716424464 0.9902971685587421 0.6529065922668067 12.453499066885177 -58.39714508141561 27.77707135819544 -22.5512438021525 -0.4252655875668876 2.9174179525982997 -78.85823084313998 -13.95933565420683 4.981888714583177 -3.107631264880665 -0.4489490667675418 0.07693992437545222 -8.14064395706036 0.03612686409610118 -0.024825200860183076 44.61732650070308 0.035225717861298994 0.03265488795404551 44.58228390924234 12.463061040621993 -0.04875600743827528 0.03314235957298534 0.00034619955830772183 0.009812711015155488 0.04422909958420737 0.008159877297897623 -0.0013849339215484236 0.01391644309364284 11.083968970981202 -0.037190541674856505 -0.002752563776551898 0.02926853564561794 0.031116296682598483 -0.02142512063316752 -0.03971915067304442 0.015117025888222045 0.024099428964381157 4.78065566721092 -0.008477803760591013 0.014596087744868544 0.03220977325463206 0.02532226680925405 0.010524305601509016 -0.035260416959499885 0.023695086223185526 -0.0029820620917022003 -5.6303083316556295 -0.008813195788405805 0.019378797491712268 -6.7617429481333495 0.029748302404242533 -0.04340307057193053 -6.754243073027445 0.012235719500418574 0.03394811213679425 0.03599762106343168 -0.04304449996282089 -0.027177805598249845 8.08166480946802 3.4913137816029987 -19.209331608122376 0.03466011438771271 10.434568811997403 0.020794519238970247 -5.622441335551212 -15.628264627281695 3.21458972588883 0.007035030207838109 0.0232007681370795 -0.042811372311764975 -0.04147840867727109 4.713016945091423 0.0012051032084247708 12.460365613794984 -8.217682227142726 6.8822029321022695 0.03138475848642397 46.36266762199177 0.010919062797754705 -4.316650352162536 -14.757041295402624 -3.824338881112114 -0.02833946291138367 0.027645876250751683 -0.0002709592915346352 0.012427067354946282 -10.735299974522501 -0.048563158873815 
